<?xml version="1.0" encoding="UTF-8"?>
<svg xmlns="http://www.w3.org/2000/svg" viewBox="0 0 420 182" width="1260" height="546">
  <style>text { font-family: system-ui, -apple-system, sans-serif; }</style>
  <rect width="420" height="182" fill="white" rx="6"/>
  <!-- Title -->
  <text x="210" y="20" text-anchor="middle" font-size="13" fill="#2C3E50" font-weight="700">Dish (b1_dish)</text>
  <!-- Separators -->
  <line x1="142.5" y1="39" x2="142.5" y2="139" stroke="#E0E0E0" stroke-width="1" stroke-dasharray="4,3"/>
  <line x1="277.5" y1="39" x2="277.5" y2="139" stroke="#E0E0E0" stroke-width="1" stroke-dasharray="4,3"/>
  <!-- Items -->
  <g transform="translate(40,44) scale(1)" style="cursor:default"><ellipse cx="30" cy="25" rx="28" ry="18" fill="#FDFEFE" stroke="#D5D8DC" stroke-width="0.8"></ellipse><ellipse cx="30" cy="25" rx="22" ry="14" fill="none" stroke="#E8E8E8" stroke-width="0.5"></ellipse><rect x="-2" y="18" width="8" height="14" rx="3" fill="#3498DB" stroke="#2E86C1" stroke-width="0.5"></rect><rect x="54" y="18" width="8" height="14" rx="3" fill="#3498DB" stroke="#2E86C1" stroke-width="0.5"></rect></g>
  <text x="75" y="155" text-anchor="middle" font-family="system-ui,-apple-system,sans-serif" font-size="11" fill="#C0392B" font-weight="700">Target</text>
  <g transform="translate(175,44) scale(1)" style="cursor:default"><circle cx="25" cy="25" r="22" fill="#FDFEFE" stroke="#D5D8DC" stroke-width="0.8"></circle><circle cx="25" cy="25" r="17" fill="none" stroke="#E8E8E8" stroke-width="0.5"></circle><rect x="-2" y="18" width="8" height="14" rx="3" fill="#3498DB" stroke="#2E86C1" stroke-width="0.5"></rect><rect x="44" y="18" width="8" height="14" rx="3" fill="#3498DB" stroke="#2E86C1" stroke-width="0.5"></rect></g>
  <text x="210" y="155" text-anchor="middle" font-family="system-ui,-apple-system,sans-serif" font-size="11" fill="#7F8C8D" font-weight="400">Distractor 1</text>
  <g transform="translate(310,44) scale(1)" style="cursor:default"><ellipse cx="30" cy="25" rx="28" ry="18" fill="#FDFEFE" stroke="#D5D8DC" stroke-width="0.8"></ellipse><ellipse cx="30" cy="25" rx="22" ry="14" fill="none" stroke="#E8E8E8" stroke-width="0.5"></ellipse><rect x="-2" y="18" width="8" height="14" rx="3" fill="#E74C3C" stroke="#C0392B" stroke-width="0.5"></rect><rect x="54" y="18" width="8" height="14" rx="3" fill="#E74C3C" stroke="#C0392B" stroke-width="0.5"></rect></g>
  <text x="345" y="155" text-anchor="middle" font-family="system-ui,-apple-system,sans-serif" font-size="11" fill="#7F8C8D" font-weight="400">Distractor 2</text>
</svg>