<?xml version="1.0" encoding="UTF-8"?>
<svg xmlns="http://www.w3.org/2000/svg" viewBox="0 0 420 182" width="1260" height="546">
  <style>text { font-family: system-ui, -apple-system, sans-serif; }</style>
  <rect width="420" height="182" fill="white" rx="6"/>
  <!-- Title -->
  <text x="210" y="20" text-anchor="middle" font-size="13" fill="#2C3E50" font-weight="700">Gift Bag (b1_giftbag)</text>
  <!-- Separators -->
  <line x1="142.5" y1="39" x2="142.5" y2="139" stroke="#E0E0E0" stroke-width="1" stroke-dasharray="4,3"/>
  <line x1="277.5" y1="39" x2="277.5" y2="139" stroke="#E0E0E0" stroke-width="1" stroke-dasharray="4,3"/>
  <!-- Items -->
  <g transform="translate(40,44) scale(1)" style="cursor:default"><path d="M6,36 L2,8 L34,8 L30,36 Z" fill="#5DADE2" stroke="#2E86C1" stroke-width="0.5"></path><path d="M10.799999999999999,8 Q10.799999999999999,2 18,2 Q25.2,2 25.2,8" fill="none" stroke="#2471A3" stroke-width="1.5" stroke-linecap="round"></path><ellipse cx="13" cy="7" rx="6" ry="3.5" fill="#E74C3C" opacity="0.9"></ellipse><ellipse cx="23" cy="7" rx="6" ry="3.5" fill="#E74C3C" opacity="0.9"></ellipse><circle cx="18" cy="7" r="2.5" fill="#C0392B"></circle></g>
  <text x="75" y="155" text-anchor="middle" font-family="system-ui,-apple-system,sans-serif" font-size="11" fill="#C0392B" font-weight="700">Target</text>
  <g transform="translate(175,44) scale(1)" style="cursor:default"><path d="M6,36 L2,8 L34,8 L30,36 Z" fill="#5DADE2" stroke="#2E86C1" stroke-width="0.5"></path><path d="M10.799999999999999,8 Q10.799999999999999,2 18,2 Q25.2,2 25.2,8" fill="none" stroke="#2471A3" stroke-width="1.5" stroke-linecap="round"></path><line x1="18" y1="3" x2="18" y2="31" stroke="#E74C3C" stroke-width="1.5"></line><line x1="9" y1="18" x2="27" y2="18" stroke="#E74C3C" stroke-width="1"></line></g>
  <text x="210" y="155" text-anchor="middle" font-family="system-ui,-apple-system,sans-serif" font-size="11" fill="#7F8C8D" font-weight="400">Distractor 1</text>
  <g transform="translate(310,44) scale(1)" style="cursor:default"><path d="M6,50 L2,8 L48,8 L44,50 Z" fill="#5DADE2" stroke="#2E86C1" stroke-width="0.5"></path><path d="M15,8 Q15,2 25,2 Q35,2 35,8" fill="none" stroke="#2471A3" stroke-width="1.5" stroke-linecap="round"></path><ellipse cx="20" cy="7" rx="6" ry="3.5" fill="#E74C3C" opacity="0.9"></ellipse><ellipse cx="30" cy="7" rx="6" ry="3.5" fill="#E74C3C" opacity="0.9"></ellipse><circle cx="25" cy="7" r="2.5" fill="#C0392B"></circle></g>
  <text x="345" y="155" text-anchor="middle" font-family="system-ui,-apple-system,sans-serif" font-size="11" fill="#7F8C8D" font-weight="400">Distractor 2</text>
</svg>