<?xml version="1.0" encoding="UTF-8"?>
<svg xmlns="http://www.w3.org/2000/svg" viewBox="0 0 420 182" width="1260" height="546">
  <style>text { font-family: system-ui, -apple-system, sans-serif; }</style>
  <rect width="420" height="182" fill="white" rx="6"/>
  <!-- Title -->
  <text x="210" y="20" text-anchor="middle" font-size="13" fill="#2C3E50" font-weight="700">Napkin Rings (b2_napkinrings)</text>
  <!-- Separators -->
  <line x1="142.5" y1="39" x2="142.5" y2="139" stroke="#E0E0E0" stroke-width="1" stroke-dasharray="4,3"/>
  <line x1="277.5" y1="39" x2="277.5" y2="139" stroke="#E0E0E0" stroke-width="1" stroke-dasharray="4,3"/>
  <!-- Items -->
  <g transform="translate(40,44) scale(1)" style="cursor:default"><g><ellipse cx="10" cy="20" rx="8" ry="12" fill="none" stroke="#C19A6B" stroke-width="3.5"></ellipse><ellipse cx="10" cy="20" rx="8" ry="12" fill="none" stroke="#D4A76A" stroke-width="2.5"></ellipse><path d="M4,16 Q10,15 16,16" fill="none" stroke="#B8860B" stroke-width="0.3" opacity="0.3"></path><path d="M4,22 Q10,21 16,22" fill="none" stroke="#B8860B" stroke-width="0.3" opacity="0.3"></path></g><g><ellipse cx="28" cy="20" rx="8" ry="12" fill="none" stroke="#C19A6B" stroke-width="3.5"></ellipse><ellipse cx="28" cy="20" rx="8" ry="12" fill="none" stroke="#D4A76A" stroke-width="2.5"></ellipse><path d="M22,16 Q28,15 34,16" fill="none" stroke="#B8860B" stroke-width="0.3" opacity="0.3"></path><path d="M22,22 Q28,21 34,22" fill="none" stroke="#B8860B" stroke-width="0.3" opacity="0.3"></path></g><g><ellipse cx="46" cy="20" rx="8" ry="12" fill="none" stroke="#C19A6B" stroke-width="3.5"></ellipse><ellipse cx="46" cy="20" rx="8" ry="12" fill="none" stroke="#D4A76A" stroke-width="2.5"></ellipse><path d="M40,16 Q46,15 52,16" fill="none" stroke="#B8860B" stroke-width="0.3" opacity="0.3"></path><path d="M40,22 Q46,21 52,22" fill="none" stroke="#B8860B" stroke-width="0.3" opacity="0.3"></path></g></g>
  <text x="75" y="155" text-anchor="middle" font-family="system-ui,-apple-system,sans-serif" font-size="11" fill="#C0392B" font-weight="700">Target</text>
  <g transform="translate(175,44) scale(1)" style="cursor:default"><g><ellipse cx="10" cy="20" rx="8" ry="12" fill="none" stroke="#8B6914" stroke-width="3.5"></ellipse><ellipse cx="10" cy="20" rx="8" ry="12" fill="none" stroke="#A07828" stroke-width="2.5"></ellipse><path d="M4,16 Q10,15 16,16" fill="none" stroke="#6B4F10" stroke-width="0.3" opacity="0.3"></path><path d="M4,22 Q10,21 16,22" fill="none" stroke="#6B4F10" stroke-width="0.3" opacity="0.3"></path></g><g><ellipse cx="28" cy="20" rx="8" ry="12" fill="none" stroke="#8B6914" stroke-width="3.5"></ellipse><ellipse cx="28" cy="20" rx="8" ry="12" fill="none" stroke="#A07828" stroke-width="2.5"></ellipse><path d="M22,16 Q28,15 34,16" fill="none" stroke="#6B4F10" stroke-width="0.3" opacity="0.3"></path><path d="M22,22 Q28,21 34,22" fill="none" stroke="#6B4F10" stroke-width="0.3" opacity="0.3"></path></g><g><ellipse cx="46" cy="20" rx="8" ry="12" fill="none" stroke="#8B6914" stroke-width="3.5"></ellipse><ellipse cx="46" cy="20" rx="8" ry="12" fill="none" stroke="#A07828" stroke-width="2.5"></ellipse><path d="M40,16 Q46,15 52,16" fill="none" stroke="#6B4F10" stroke-width="0.3" opacity="0.3"></path><path d="M40,22 Q46,21 52,22" fill="none" stroke="#6B4F10" stroke-width="0.3" opacity="0.3"></path></g></g>
  <text x="210" y="155" text-anchor="middle" font-family="system-ui,-apple-system,sans-serif" font-size="11" fill="#7F8C8D" font-weight="400">Distractor 1</text>
  <g transform="translate(310,44) scale(1)" style="cursor:default"><g><ellipse cx="10" cy="20" rx="8" ry="12" fill="none" stroke="#ABB2B9" stroke-width="3.5"></ellipse><ellipse cx="10" cy="20" rx="8" ry="12" fill="none" stroke="#D5D8DC" stroke-width="2.5"></ellipse></g><g><ellipse cx="28" cy="20" rx="8" ry="12" fill="none" stroke="#ABB2B9" stroke-width="3.5"></ellipse><ellipse cx="28" cy="20" rx="8" ry="12" fill="none" stroke="#D5D8DC" stroke-width="2.5"></ellipse></g><g><ellipse cx="46" cy="20" rx="8" ry="12" fill="none" stroke="#ABB2B9" stroke-width="3.5"></ellipse><ellipse cx="46" cy="20" rx="8" ry="12" fill="none" stroke="#D5D8DC" stroke-width="2.5"></ellipse></g></g>
  <text x="345" y="155" text-anchor="middle" font-family="system-ui,-apple-system,sans-serif" font-size="11" fill="#7F8C8D" font-weight="400">Distractor 2</text>
</svg>