<?xml version="1.0" encoding="UTF-8"?>
<svg xmlns="http://www.w3.org/2000/svg" viewBox="0 0 420 182" width="1260" height="546">
  <style>text { font-family: system-ui, -apple-system, sans-serif; }</style>
  <rect width="420" height="182" fill="white" rx="6"/>
  <!-- Title -->
  <text x="210" y="20" text-anchor="middle" font-size="13" fill="#2C3E50" font-weight="700">Softener (b2_softener)</text>
  <!-- Separators -->
  <line x1="142.5" y1="39" x2="142.5" y2="139" stroke="#E0E0E0" stroke-width="1" stroke-dasharray="4,3"/>
  <line x1="277.5" y1="39" x2="277.5" y2="139" stroke="#E0E0E0" stroke-width="1" stroke-dasharray="4,3"/>
  <!-- Items -->
  <g transform="translate(40,44) scale(1)" style="cursor:default"><rect x="4" y="16" width="32" height="48" rx="5" fill="#8E44AD" stroke="#7D3C98" stroke-width="0.5"></rect><rect x="12" y="4" width="16" height="14" rx="3" fill="#8E44AD" stroke="#7D3C98" stroke-width="0.5"></rect><rect x="10" y="0" width="20" height="8" rx="3" fill="#9B59B6" stroke="#7D3C98" stroke-width="0.3"></rect><rect x="10" y="28" width="20" height="24" rx="2" fill="#E8DAEF" stroke="#D2B4DE" stroke-width="0.3"></rect><line x1="20" y1="44" x2="20" y2="33" stroke="#27AE60" stroke-width="0.8" stroke-linecap="round"></line><ellipse cx="20" cy="34" rx="2.5" ry="1.8" fill="#8E44AD"></ellipse><ellipse cx="18.5" cy="37" rx="2.5" ry="1.8" fill="#9B59B6"></ellipse><ellipse cx="21.5" cy="37" rx="2.5" ry="1.8" fill="#9B59B6"></ellipse><ellipse cx="19" cy="40" rx="2" ry="1.5" fill="#AF7AC5"></ellipse><ellipse cx="21" cy="40" rx="2" ry="1.5" fill="#AF7AC5"></ellipse><text x="20" y="48" text-anchor="middle" font-family="Helvetica,Arial,sans-serif" font-size="4.5" fill="#6C3483" font-weight="600">LAVENDER</text></g>
  <text x="75" y="155" text-anchor="middle" font-family="system-ui,-apple-system,sans-serif" font-size="11" fill="#C0392B" font-weight="700">Target</text>
  <g transform="translate(175,44) scale(1)" style="cursor:default"><rect x="4" y="16" width="32" height="48" rx="5" fill="#8E44AD" stroke="#7D3C98" stroke-width="0.5"></rect><rect x="12" y="4" width="16" height="14" rx="3" fill="#8E44AD" stroke="#7D3C98" stroke-width="0.5"></rect><rect x="10" y="0" width="20" height="8" rx="3" fill="#9B59B6" stroke="#7D3C98" stroke-width="0.3"></rect><rect x="10" y="28" width="20" height="24" rx="2" fill="#E8DAEF" stroke="#D2B4DE" stroke-width="0.3"></rect><line x1="20" y1="44" x2="20" y2="32" stroke="#27AE60" stroke-width="0.8" stroke-linecap="round"></line><ellipse cx="17" cy="35" rx="4" ry="2" fill="#27AE60" transform="rotate(-30 17 35)"></ellipse><ellipse cx="23" cy="35" rx="4" ry="2" fill="#27AE60" transform="rotate(30 23 35)"></ellipse><ellipse cx="16" cy="39" rx="4" ry="2" fill="#2ECC71" transform="rotate(-40 16 39)"></ellipse><ellipse cx="24" cy="39" rx="4" ry="2" fill="#2ECC71" transform="rotate(40 24 39)"></ellipse><text x="20" y="48" text-anchor="middle" font-family="Helvetica,Arial,sans-serif" font-size="4.5" fill="#0E6B35" font-weight="600">EUCALYPTUS</text></g>
  <text x="210" y="155" text-anchor="middle" font-family="system-ui,-apple-system,sans-serif" font-size="11" fill="#7F8C8D" font-weight="400">Distractor 1</text>
  <g transform="translate(310,44) scale(1)" style="cursor:default"><rect x="4" y="16" width="32" height="48" rx="5" fill="#FDFEFE" stroke="#D5D8DC" stroke-width="0.5"></rect><rect x="12" y="4" width="16" height="14" rx="3" fill="#FDFEFE" stroke="#D5D8DC" stroke-width="0.5"></rect><rect x="10" y="0" width="20" height="8" rx="3" fill="#E8E8E8" stroke="#D5D8DC" stroke-width="0.3"></rect><rect x="10" y="28" width="20" height="24" rx="2" fill="#E8DAEF" stroke="#D2B4DE" stroke-width="0.3"></rect><line x1="20" y1="44" x2="20" y2="33" stroke="#27AE60" stroke-width="0.8" stroke-linecap="round"></line><ellipse cx="20" cy="34" rx="2.5" ry="1.8" fill="#8E44AD"></ellipse><ellipse cx="18.5" cy="37" rx="2.5" ry="1.8" fill="#9B59B6"></ellipse><ellipse cx="21.5" cy="37" rx="2.5" ry="1.8" fill="#9B59B6"></ellipse><ellipse cx="19" cy="40" rx="2" ry="1.5" fill="#AF7AC5"></ellipse><ellipse cx="21" cy="40" rx="2" ry="1.5" fill="#AF7AC5"></ellipse><text x="20" y="48" text-anchor="middle" font-family="Helvetica,Arial,sans-serif" font-size="4.5" fill="#6C3483" font-weight="600">LAVENDER</text></g>
  <text x="345" y="155" text-anchor="middle" font-family="system-ui,-apple-system,sans-serif" font-size="11" fill="#7F8C8D" font-weight="400">Distractor 2</text>
</svg>