<?xml version="1.0" encoding="UTF-8"?>
<svg xmlns="http://www.w3.org/2000/svg" viewBox="0 0 420 182" width="1260" height="546">
  <style>text { font-family: system-ui, -apple-system, sans-serif; }</style>
  <rect width="420" height="182" fill="white" rx="6"/>
  <!-- Title -->
  <text x="210" y="20" text-anchor="middle" font-size="13" fill="#2C3E50" font-weight="700">Speaker (b3_speaker)</text>
  <!-- Separators -->
  <line x1="142.5" y1="39" x2="142.5" y2="139" stroke="#E0E0E0" stroke-width="1" stroke-dasharray="4,3"/>
  <line x1="277.5" y1="39" x2="277.5" y2="139" stroke="#E0E0E0" stroke-width="1" stroke-dasharray="4,3"/>
  <!-- Items -->
  <g transform="translate(40,44) scale(1)" style="cursor:default"><circle cx="25" cy="25" r="22" fill="#7F8C8D" stroke="#566573" stroke-width="1.2"></circle><g><line x1="3" y1="3" x2="3" y2="47" stroke="#95A5A6" stroke-width="0.3" opacity="0.4"></line><line x1="3" y1="3" x2="47" y2="3" stroke="#95A5A6" stroke-width="0.3" opacity="0.4"></line></g><g><line x1="9" y1="3" x2="9" y2="47" stroke="#95A5A6" stroke-width="0.3" opacity="0.4"></line><line x1="3" y1="9" x2="47" y2="9" stroke="#95A5A6" stroke-width="0.3" opacity="0.4"></line></g><g><line x1="15" y1="3" x2="15" y2="47" stroke="#95A5A6" stroke-width="0.3" opacity="0.4"></line><line x1="3" y1="15" x2="47" y2="15" stroke="#95A5A6" stroke-width="0.3" opacity="0.4"></line></g><g><line x1="21" y1="3" x2="21" y2="47" stroke="#95A5A6" stroke-width="0.3" opacity="0.4"></line><line x1="3" y1="21" x2="47" y2="21" stroke="#95A5A6" stroke-width="0.3" opacity="0.4"></line></g><g><line x1="27" y1="3" x2="27" y2="47" stroke="#95A5A6" stroke-width="0.3" opacity="0.4"></line><line x1="3" y1="27" x2="47" y2="27" stroke="#95A5A6" stroke-width="0.3" opacity="0.4"></line></g><g><line x1="33" y1="3" x2="33" y2="47" stroke="#95A5A6" stroke-width="0.3" opacity="0.4"></line><line x1="3" y1="33" x2="47" y2="33" stroke="#95A5A6" stroke-width="0.3" opacity="0.4"></line></g><g><line x1="39" y1="3" x2="39" y2="47" stroke="#95A5A6" stroke-width="0.3" opacity="0.4"></line><line x1="3" y1="39" x2="47" y2="39" stroke="#95A5A6" stroke-width="0.3" opacity="0.4"></line></g><g><line x1="45" y1="3" x2="45" y2="47" stroke="#95A5A6" stroke-width="0.3" opacity="0.4"></line><line x1="3" y1="45" x2="47" y2="45" stroke="#95A5A6" stroke-width="0.3" opacity="0.4"></line></g><circle cx="25" cy="25" r="7" fill="#5D6D7E"></circle><circle cx="25" cy="25" r="3" fill="#4D5D6D"></circle></g>
  <text x="75" y="155" text-anchor="middle" font-family="system-ui,-apple-system,sans-serif" font-size="11" fill="#C0392B" font-weight="700">Target</text>
  <g transform="translate(175,44) scale(1)" style="cursor:default"><circle cx="25" cy="25" r="22" fill="#2C3E50" stroke="#1C2833" stroke-width="1.2"></circle><ellipse cx="18" cy="18" rx="8" ry="5" fill="white" opacity="0.08"></ellipse><circle cx="25" cy="25" r="7" fill="#5D6D7E"></circle><circle cx="25" cy="25" r="3" fill="#4D5D6D"></circle></g>
  <text x="210" y="155" text-anchor="middle" font-family="system-ui,-apple-system,sans-serif" font-size="11" fill="#7F8C8D" font-weight="400">Distractor 1</text>
  <g transform="translate(310,44) scale(1)" style="cursor:default"><rect x="3" y="3" width="44" height="44" rx="6" fill="#7F8C8D" stroke="#566573" stroke-width="1.2"></rect><g><line x1="3" y1="3" x2="3" y2="47" stroke="#95A5A6" stroke-width="0.3" opacity="0.4"></line><line x1="3" y1="3" x2="47" y2="3" stroke="#95A5A6" stroke-width="0.3" opacity="0.4"></line></g><g><line x1="9" y1="3" x2="9" y2="47" stroke="#95A5A6" stroke-width="0.3" opacity="0.4"></line><line x1="3" y1="9" x2="47" y2="9" stroke="#95A5A6" stroke-width="0.3" opacity="0.4"></line></g><g><line x1="15" y1="3" x2="15" y2="47" stroke="#95A5A6" stroke-width="0.3" opacity="0.4"></line><line x1="3" y1="15" x2="47" y2="15" stroke="#95A5A6" stroke-width="0.3" opacity="0.4"></line></g><g><line x1="21" y1="3" x2="21" y2="47" stroke="#95A5A6" stroke-width="0.3" opacity="0.4"></line><line x1="3" y1="21" x2="47" y2="21" stroke="#95A5A6" stroke-width="0.3" opacity="0.4"></line></g><g><line x1="27" y1="3" x2="27" y2="47" stroke="#95A5A6" stroke-width="0.3" opacity="0.4"></line><line x1="3" y1="27" x2="47" y2="27" stroke="#95A5A6" stroke-width="0.3" opacity="0.4"></line></g><g><line x1="33" y1="3" x2="33" y2="47" stroke="#95A5A6" stroke-width="0.3" opacity="0.4"></line><line x1="3" y1="33" x2="47" y2="33" stroke="#95A5A6" stroke-width="0.3" opacity="0.4"></line></g><g><line x1="39" y1="3" x2="39" y2="47" stroke="#95A5A6" stroke-width="0.3" opacity="0.4"></line><line x1="3" y1="39" x2="47" y2="39" stroke="#95A5A6" stroke-width="0.3" opacity="0.4"></line></g><g><line x1="45" y1="3" x2="45" y2="47" stroke="#95A5A6" stroke-width="0.3" opacity="0.4"></line><line x1="3" y1="45" x2="47" y2="45" stroke="#95A5A6" stroke-width="0.3" opacity="0.4"></line></g><circle cx="25" cy="25" r="7" fill="#5D6D7E"></circle><circle cx="25" cy="25" r="3" fill="#4D5D6D"></circle></g>
  <text x="345" y="155" text-anchor="middle" font-family="system-ui,-apple-system,sans-serif" font-size="11" fill="#7F8C8D" font-weight="400">Distractor 2</text>
</svg>