<?xml version="1.0" encoding="UTF-8"?>
<svg xmlns="http://www.w3.org/2000/svg" viewBox="0 0 420 182" width="1260" height="546">
  <style>text { font-family: system-ui, -apple-system, sans-serif; }</style>
  <rect width="420" height="182" fill="white" rx="6"/>
  <!-- Title -->
  <text x="210" y="20" text-anchor="middle" font-size="13" fill="#2C3E50" font-weight="700">Vase (b3_vase)</text>
  <!-- Separators -->
  <line x1="142.5" y1="39" x2="142.5" y2="139" stroke="#E0E0E0" stroke-width="1" stroke-dasharray="4,3"/>
  <line x1="277.5" y1="39" x2="277.5" y2="139" stroke="#E0E0E0" stroke-width="1" stroke-dasharray="4,3"/>
  <!-- Items -->
  <g transform="translate(40,44) scale(1)" style="cursor:default"><path d="M15,50 Q8,38 10,25 Q12,14 18,8 L32,8 Q38,14 40,25 Q42,38 35,50 Z" fill="#5DADE2" stroke="#2E86C1" stroke-width="0.5"></path><ellipse cx="25" cy="8" rx="8" ry="3" fill="#3498DB" stroke="#2E86C1" stroke-width="0.5"></ellipse><path d="M17,28 Q19,18 22,12" fill="none" stroke="white" stroke-width="1.2" opacity="0.3" stroke-linecap="round"></path><rect x="20" y="49" width="10" height="3" rx="1.5" fill="#2E86C1"></rect></g>
  <text x="75" y="155" text-anchor="middle" font-family="system-ui,-apple-system,sans-serif" font-size="11" fill="#C0392B" font-weight="700">Target</text>
  <g transform="translate(175,44) scale(1)" style="cursor:default"><path d="M15,50 Q8,38 10,25 Q12,14 18,8 L32,8 Q38,14 40,25 Q42,38 35,50 Z" fill="#58D68D" stroke="#27AE60" stroke-width="0.5"></path><ellipse cx="25" cy="8" rx="8" ry="3" fill="#2ECC71" stroke="#27AE60" stroke-width="0.5"></ellipse><path d="M17,28 Q19,18 22,12" fill="none" stroke="white" stroke-width="1.2" opacity="0.3" stroke-linecap="round"></path><rect x="20" y="49" width="10" height="3" rx="1.5" fill="#27AE60"></rect></g>
  <text x="210" y="155" text-anchor="middle" font-family="system-ui,-apple-system,sans-serif" font-size="11" fill="#7F8C8D" font-weight="400">Distractor 1</text>
  <g transform="translate(310,44) scale(1)" style="cursor:default"><path d="M21,70 Q11.2,53.199999999999996 14,35 Q16.799999999999997,19.599999999999998 25.2,11.2 L44.8,11.2 Q53.199999999999996,19.599999999999998 56,35 Q58.8,53.199999999999996 49,70 Z" fill="#5DADE2" stroke="#2E86C1" stroke-width="0.5"></path><ellipse cx="35" cy="11.2" rx="11.2" ry="4.199999999999999" fill="#3498DB" stroke="#2E86C1" stroke-width="0.5"></ellipse><path d="M23.799999999999997,39.199999999999996 Q26.599999999999998,25.2 30.799999999999997,16.799999999999997" fill="none" stroke="white" stroke-width="1.68" opacity="0.3" stroke-linecap="round"></path><rect x="28" y="68.6" width="14" height="4.199999999999999" rx="2.0999999999999996" fill="#2E86C1"></rect></g>
  <text x="345" y="155" text-anchor="middle" font-family="system-ui,-apple-system,sans-serif" font-size="11" fill="#7F8C8D" font-weight="400">Distractor 2</text>
</svg>