<?xml version="1.0" encoding="UTF-8"?>
<svg xmlns="http://www.w3.org/2000/svg" viewBox="0 0 420 182" width="1260" height="546">
  <style>text { font-family: system-ui, -apple-system, sans-serif; }</style>
  <rect width="420" height="182" fill="white" rx="6"/>
  <!-- Title -->
  <text x="210" y="20" text-anchor="middle" font-size="13" fill="#2C3E50" font-weight="700">Soap (b1_soap)</text>
  <!-- Separators -->
  <line x1="142.5" y1="39" x2="142.5" y2="139" stroke="#E0E0E0" stroke-width="1" stroke-dasharray="4,3"/>
  <line x1="277.5" y1="39" x2="277.5" y2="139" stroke="#E0E0E0" stroke-width="1" stroke-dasharray="4,3"/>
  <!-- Items -->
  <g transform="translate(40,44) scale(1)" style="cursor:default"><rect x="4" y="20" width="32" height="44" rx="6" fill="#FDFEFE" stroke="#D5D8DC" stroke-width="0.5"></rect><rect x="14" y="8" width="12" height="14" rx="2" fill="#BDC3C7" stroke="#95A5A6" stroke-width="0.3"></rect><rect x="10" y="2" width="20" height="8" rx="3" fill="#ABB2B9"></rect><rect x="26" y="0" width="10" height="5" rx="2" fill="#ABB2B9"></rect><rect x="10" y="32" width="20" height="18" rx="2" fill="#F9E79F" stroke="#7D6608" stroke-width="0.3"></rect><text x="20" y="44" text-anchor="middle" font-family="Helvetica,Arial,sans-serif" font-size="5" fill="#7D6608" font-weight="600">LEMON</text></g>
  <text x="75" y="155" text-anchor="middle" font-family="system-ui,-apple-system,sans-serif" font-size="11" fill="#C0392B" font-weight="700">Target</text>
  <g transform="translate(175,44) scale(1)" style="cursor:default"><rect x="4" y="10" width="32" height="50" rx="6" fill="#FDFEFE" stroke="#D5D8DC" stroke-width="0.5"></rect><rect x="12" y="0" width="16" height="14" rx="4" fill="#E8E8E8" stroke="#D5D8DC" stroke-width="0.3"></rect><rect x="16" y="-2" width="8" height="5" rx="2" fill="#D5D8DC"></rect><rect x="10" y="28" width="20" height="18" rx="2" fill="#F9E79F" stroke="#7D6608" stroke-width="0.3"></rect><text x="20" y="40" text-anchor="middle" font-family="Helvetica,Arial,sans-serif" font-size="5" fill="#7D6608" font-weight="600">LEMON</text></g>
  <text x="210" y="155" text-anchor="middle" font-family="system-ui,-apple-system,sans-serif" font-size="11" fill="#7F8C8D" font-weight="400">Distractor 1</text>
  <g transform="translate(310,44) scale(1)" style="cursor:default"><rect x="4" y="20" width="32" height="44" rx="6" fill="#FDFEFE" stroke="#D5D8DC" stroke-width="0.5"></rect><rect x="14" y="8" width="12" height="14" rx="2" fill="#BDC3C7" stroke="#95A5A6" stroke-width="0.3"></rect><rect x="10" y="2" width="20" height="8" rx="3" fill="#ABB2B9"></rect><rect x="26" y="0" width="10" height="5" rx="2" fill="#ABB2B9"></rect><rect x="10" y="32" width="20" height="18" rx="2" fill="#ABEBC6" stroke="#0E6B35" stroke-width="0.3"></rect><text x="20" y="44" text-anchor="middle" font-family="Helvetica,Arial,sans-serif" font-size="5" fill="#0E6B35" font-weight="600">MINT</text></g>
  <text x="345" y="155" text-anchor="middle" font-family="system-ui,-apple-system,sans-serif" font-size="11" fill="#7F8C8D" font-weight="400">Distractor 2</text>
</svg>