<?xml version="1.0" encoding="UTF-8"?>
<svg xmlns="http://www.w3.org/2000/svg" viewBox="0 0 420 182" width="1260" height="546">
  <style>text { font-family: system-ui, -apple-system, sans-serif; }</style>
  <rect width="420" height="182" fill="white" rx="6"/>
  <!-- Title -->
  <text x="210" y="20" text-anchor="middle" font-size="13" fill="#2C3E50" font-weight="700">Flower Pot (b2_pot)</text>
  <!-- Separators -->
  <line x1="142.5" y1="39" x2="142.5" y2="139" stroke="#E0E0E0" stroke-width="1" stroke-dasharray="4,3"/>
  <line x1="277.5" y1="39" x2="277.5" y2="139" stroke="#E0E0E0" stroke-width="1" stroke-dasharray="4,3"/>
  <!-- Items -->
  <g transform="translate(40,44) scale(1)" style="cursor:default"><ellipse cx="22" cy="48" rx="30" ry="5" fill="#C0846B" stroke="#A0695A" stroke-width="0.5"></ellipse><ellipse cx="22" cy="46.5" rx="26" ry="3.5" fill="#D49A80"></ellipse><path d="M5.5,9.600000000000001 L3.3,46 L40.7,46 L38.5,9.600000000000001 Z" fill="#C0846B" stroke="#A0695A" stroke-width="0.5"></path><ellipse cx="22" cy="9.600000000000001" rx="8.8" ry="3.3" fill="#D49A80" stroke="#A0695A" stroke-width="0.5"></ellipse></g>
  <text x="75" y="155" text-anchor="middle" font-family="system-ui,-apple-system,sans-serif" font-size="11" fill="#C0392B" font-weight="700">Target</text>
  <g transform="translate(175,44) scale(1)" style="cursor:default"><ellipse cx="16" cy="36" rx="24" ry="5" fill="#C0846B" stroke="#A0695A" stroke-width="0.5"></ellipse><ellipse cx="16" cy="34.5" rx="20" ry="3.5" fill="#D49A80"></ellipse><path d="M4,7.2 L2.4,34 L29.6,34 L28,7.2 Z" fill="#C0846B" stroke="#A0695A" stroke-width="0.5"></path><ellipse cx="16" cy="7.2" rx="6.4" ry="2.4" fill="#D49A80" stroke="#A0695A" stroke-width="0.5"></ellipse></g>
  <text x="210" y="155" text-anchor="middle" font-family="system-ui,-apple-system,sans-serif" font-size="11" fill="#7F8C8D" font-weight="400">Distractor 1</text>
  <g transform="translate(310,44) scale(1)" style="cursor:default"><path d="M5.5,9.600000000000001 L3.3,46 L40.7,46 L38.5,9.600000000000001 Z" fill="#C0846B" stroke="#A0695A" stroke-width="0.5"></path><ellipse cx="22" cy="9.600000000000001" rx="8.8" ry="3.3" fill="#D49A80" stroke="#A0695A" stroke-width="0.5"></ellipse></g>
  <text x="345" y="155" text-anchor="middle" font-family="system-ui,-apple-system,sans-serif" font-size="11" fill="#7F8C8D" font-weight="400">Distractor 2</text>
</svg>