<?xml version="1.0" encoding="UTF-8"?>
<svg xmlns="http://www.w3.org/2000/svg" viewBox="0 0 420 182" width="1260" height="546">
  <style>text { font-family: system-ui, -apple-system, sans-serif; }</style>
  <rect width="420" height="182" fill="white" rx="6"/>
  <!-- Title -->
  <text x="210" y="20" text-anchor="middle" font-size="13" fill="#2C3E50" font-weight="700">Vinyl Record (b2_vinyl)</text>
  <!-- Separators -->
  <line x1="142.5" y1="39" x2="142.5" y2="139" stroke="#E0E0E0" stroke-width="1" stroke-dasharray="4,3"/>
  <line x1="277.5" y1="39" x2="277.5" y2="139" stroke="#E0E0E0" stroke-width="1" stroke-dasharray="4,3"/>
  <!-- Items -->
  <g transform="translate(40,44) scale(1)" style="cursor:default"><rect x="0" y="0" width="56" height="56" rx="2" fill="#1C1C1C"></rect><rect x="4" y="4" width="48" height="36" rx="1" fill="#2C3E50"></rect><path d="M16,32 L20,25 L36,25 L40,32 Z" fill="#E74C3C"></path><rect x="15" y="32" width="26" height="5" rx="1.5" fill="#C0392B"></rect><circle cx="21" cy="38" r="2.5" fill="#1C1C1C"></circle><circle cx="35" cy="38" r="2.5" fill="#1C1C1C"></circle><text x="28" y="50" text-anchor="middle" font-family="Helvetica,Arial,sans-serif" font-size="5" fill="#ECF0F1" font-weight="700" letter-spacing="0.5">NIGHT DRIVE</text></g>
  <text x="75" y="155" text-anchor="middle" font-family="system-ui,-apple-system,sans-serif" font-size="11" fill="#C0392B" font-weight="700">Target</text>
  <g transform="translate(175,44) scale(1)" style="cursor:default"><rect x="0" y="0" width="56" height="56" rx="2" fill="#1C1C1C"></rect><rect x="4" y="4" width="48" height="36" rx="1" fill="#2C3E50"></rect><path d="M16,32 L20,25 L36,25 L40,32 Z" fill="#E74C3C"></path><rect x="15" y="32" width="26" height="5" rx="1.5" fill="#C0392B"></rect><circle cx="21" cy="38" r="2.5" fill="#1C1C1C"></circle><circle cx="35" cy="38" r="2.5" fill="#1C1C1C"></circle><text x="28" y="50" text-anchor="middle" font-family="Helvetica,Arial,sans-serif" font-size="5" fill="#ECF0F1" font-weight="700" letter-spacing="0.5">DARK SIDE</text></g>
  <text x="210" y="155" text-anchor="middle" font-family="system-ui,-apple-system,sans-serif" font-size="11" fill="#7F8C8D" font-weight="400">Distractor 1</text>
  <g transform="translate(310,44) scale(1)" style="cursor:default"><rect x="0" y="0" width="56" height="56" rx="2" fill="#1C1C1C"></rect><rect x="4" y="4" width="48" height="36" rx="1" fill="#2C3E50"></rect><rect x="14" y="12" width="12" height="12" rx="1" fill="#8E44AD" opacity="0.7" transform="rotate(15 20 18)"></rect><circle cx="36" cy="20" r="8" fill="none" stroke="#E74C3C" stroke-width="1.5" opacity="0.7"></circle><line x1="18" y1="28" x2="38" y2="10" stroke="#F1C40F" stroke-width="1" opacity="0.5"></line><text x="28" y="50" text-anchor="middle" font-family="Helvetica,Arial,sans-serif" font-size="5" fill="#ECF0F1" font-weight="700" letter-spacing="0.5">NIGHT DRIVE</text></g>
  <text x="345" y="155" text-anchor="middle" font-family="system-ui,-apple-system,sans-serif" font-size="11" fill="#7F8C8D" font-weight="400">Distractor 2</text>
</svg>