<?xml version="1.0" encoding="UTF-8"?>
<svg xmlns="http://www.w3.org/2000/svg" viewBox="0 0 420 182" width="1260" height="546">
  <style>text { font-family: system-ui, -apple-system, sans-serif; }</style>
  <rect width="420" height="182" fill="white" rx="6"/>
  <!-- Title -->
  <text x="210" y="20" text-anchor="middle" font-size="13" fill="#2C3E50" font-weight="700">Hand Cream (b3_handcream)</text>
  <!-- Separators -->
  <line x1="142.5" y1="39" x2="142.5" y2="139" stroke="#E0E0E0" stroke-width="1" stroke-dasharray="4,3"/>
  <line x1="277.5" y1="39" x2="277.5" y2="139" stroke="#E0E0E0" stroke-width="1" stroke-dasharray="4,3"/>
  <!-- Items -->
  <g transform="translate(40,44) scale(1)" style="cursor:default"><g transform="rotate(-8 25 30)"><rect x="2" y="12" width="46" height="24" rx="8" fill="#FDFEFE" stroke="#D5D8DC" stroke-width="0.5"></rect><rect x="44" y="17" width="12" height="14" rx="4" fill="#E8E8E8" stroke="#D5D8DC" stroke-width="0.3"></rect><rect x="0" y="18" width="6" height="12" rx="1" fill="#E8E8E8" stroke="#D5D8DC" stroke-width="0.3"></rect><rect x="14" y="16" width="24" height="16" rx="2" fill="#E8DAEF" stroke="#D2B4DE" stroke-width="0.3"></rect><line x1="21" y1="30" x2="21" y2="21" stroke="#27AE60" stroke-width="0.6" stroke-linecap="round"></line><ellipse cx="21" cy="22" rx="2" ry="1.5" fill="#8E44AD"></ellipse><ellipse cx="20" cy="24.5" rx="2" ry="1.5" fill="#9B59B6"></ellipse><ellipse cx="22" cy="24.5" rx="2" ry="1.5" fill="#9B59B6"></ellipse><text x="32" y="28" text-anchor="middle" font-family="Helvetica,Arial,sans-serif" font-size="4" fill="#6C3483" font-weight="600">LAVENDER</text></g></g>
  <text x="75" y="155" text-anchor="middle" font-family="system-ui,-apple-system,sans-serif" font-size="11" fill="#C0392B" font-weight="700">Target</text>
  <g transform="translate(175,44) scale(1)" style="cursor:default"><g transform="rotate(-8 25 30)"><rect x="2" y="12" width="46" height="24" rx="8" fill="#FDFEFE" stroke="#D5D8DC" stroke-width="0.5"></rect><rect x="44" y="17" width="12" height="14" rx="4" fill="#E8E8E8" stroke="#D5D8DC" stroke-width="0.3"></rect><rect x="0" y="18" width="6" height="12" rx="1" fill="#E8E8E8" stroke="#D5D8DC" stroke-width="0.3"></rect><rect x="14" y="16" width="24" height="16" rx="2" fill="#E8DAEF" stroke="#D2B4DE" stroke-width="0.3"></rect><ellipse cx="20" cy="24" rx="3.5" ry="2.5" fill="#2ECC71"></ellipse><ellipse cx="22" cy="22" rx="3" ry="2" fill="#58D68D"></ellipse><line x1="21" y1="28" x2="21" y2="22" stroke="#27AE60" stroke-width="0.5"></line><text x="32" y="28" text-anchor="middle" font-family="Helvetica,Arial,sans-serif" font-size="4" fill="#0E6B35" font-weight="600">MINT</text></g></g>
  <text x="210" y="155" text-anchor="middle" font-family="system-ui,-apple-system,sans-serif" font-size="11" fill="#7F8C8D" font-weight="400">Distractor 1</text>
  <g transform="translate(310,44) scale(1)" style="cursor:default"><g transform="rotate(-8 25 30)"><rect x="2" y="12" width="46" height="24" rx="8" fill="#F5E6CC" stroke="#D5C4A1" stroke-width="0.5"></rect><rect x="44" y="17" width="12" height="14" rx="4" fill="#E8E8E8" stroke="#D5D8DC" stroke-width="0.3"></rect><rect x="0" y="18" width="6" height="12" rx="1" fill="#E8E8E8" stroke="#D5D8DC" stroke-width="0.3"></rect><rect x="14" y="16" width="24" height="16" rx="2" fill="#E8DAEF" stroke="#D2B4DE" stroke-width="0.3"></rect><line x1="21" y1="30" x2="21" y2="21" stroke="#27AE60" stroke-width="0.6" stroke-linecap="round"></line><ellipse cx="21" cy="22" rx="2" ry="1.5" fill="#8E44AD"></ellipse><ellipse cx="20" cy="24.5" rx="2" ry="1.5" fill="#9B59B6"></ellipse><ellipse cx="22" cy="24.5" rx="2" ry="1.5" fill="#9B59B6"></ellipse><text x="32" y="28" text-anchor="middle" font-family="Helvetica,Arial,sans-serif" font-size="4" fill="#6C3483" font-weight="600">LAVENDER</text></g></g>
  <text x="345" y="155" text-anchor="middle" font-family="system-ui,-apple-system,sans-serif" font-size="11" fill="#7F8C8D" font-weight="400">Distractor 2</text>
</svg>